<svg width="1457" height="1224" viewBox="0 0 1457 1224" fill="none" xmlns="http://www.w3.org/2000/svg">
<g id="Daedalus">
<rect id="Rectangle 3" width="827" height="827" transform="matrix(0.866025 -0.5 0.866025 0.5 9.43298 414)" fill="url(#paint0_linear_23_47)" stroke="black"/>
<rect id="Rectangle 4" opacity="0.41" width="699.885" height="703.11" transform="matrix(0.866025 0.5 -0.866025 0.5 728.433 125.5)" fill="url(#paint1_linear_23_47)"/>
<rect id="Rectangle 5" opacity="0.5" width="542.054" height="542.988" transform="matrix(0.866025 -0.5 0.866025 0.5 255.427 555.527)" fill="url(#paint2_linear_23_47)"/>
<rect id="Rectangle 2" width="827" height="309" transform="matrix(0.866025 0.5 0 1 0.432983 427.5)" fill="url(#paint3_linear_23_47)" stroke="black"/>
<g id="Group 3">
<rect id="Rectangle 1" width="827" height="309" transform="matrix(0.866025 -0.5 0 1 734.629 841.5)" fill="url(#paint4_linear_23_47)" stroke="black"/>
</g>
</g>
<defs>
<linearGradient id="paint0_linear_23_47" x1="11.8143" y1="361.131" x2="837.83" y2="361.131" gradientUnits="userSpaceOnUse">
<stop stop-color="#FB923C"/>
<stop offset="0.471657" stop-color="#EC4899"/>
<stop offset="1" stop-color="#7C3AED"/>
</linearGradient>
<linearGradient id="paint1_linear_23_47" x1="9.99836" y1="307.031" x2="709.051" y2="307.031" gradientUnits="userSpaceOnUse">
<stop stop-color="#FB923C"/>
<stop offset="0.471657" stop-color="#EC4899"/>
<stop offset="1" stop-color="#7C3AED"/>
</linearGradient>
<linearGradient id="paint2_linear_23_47" x1="7.74363" y1="237.11" x2="549.153" y2="237.11" gradientUnits="userSpaceOnUse">
<stop stop-color="#FB923C"/>
<stop offset="0.471657" stop-color="#EC4899"/>
<stop offset="1" stop-color="#7C3AED"/>
</linearGradient>
<linearGradient id="paint3_linear_23_47" x1="11.8143" y1="134.933" x2="837.83" y2="134.933" gradientUnits="userSpaceOnUse">
<stop stop-color="#FB923C"/>
<stop offset="0.471657" stop-color="#EC4899"/>
<stop offset="1" stop-color="#7C3AED"/>
</linearGradient>
<linearGradient id="paint4_linear_23_47" x1="11.8143" y1="134.933" x2="837.83" y2="134.933" gradientUnits="userSpaceOnUse">
<stop stop-color="#FB923C"/>
<stop offset="0.471657" stop-color="#EC4899"/>
<stop offset="1" stop-color="#7C3AED"/>
</linearGradient>
</defs>
</svg>
